<svg version="1.2" xmlns="http://www.w3.org/2000/svg" viewBox="0 0 24 24" width="24" height="24"><style>.a{fill:#292d32}</style><path fill-rule="evenodd" class="a" d="m22.7 17.6q0 0.7-0.3 1.3-0.4 0.5-1 0.9-0.5 0.3-1.2 0.3h-4.9q0 0.1 0.1 0.3c0 0.9-0.4 1.7-1 2.3-0.7 0.7-1.5 1-2.4 1-0.9 0-1.8-0.3-2.4-1-0.6-0.6-1-1.4-1-2.3q0-0.2 0.1-0.3h-4.9q-0.7 0-1.2-0.3-0.6-0.4-1-0.9-0.3-0.6-0.3-1.3 0-0.7 0.4-1.2l1.3-2.2q0.2-0.3 0.3-0.7 0.2-0.3 0.3-0.6 0.1-0.3 0.1-0.7 0.1-0.3 0.1-0.7v-3.1c0-2.2 0.8-4.2 2.4-5.7 1.5-1.6 3.6-2.4 5.8-2.4 2.2 0 4.3 0.8 5.8 2.4 1.6 1.5 2.4 3.5 2.4 5.7v3.1q0 0.4 0.1 0.7 0 0.4 0.1 0.7 0.1 0.3 0.3 0.6 0.1 0.4 0.3 0.7l1.3 2.2q0.4 0.6 0.4 1.2zm-9.2 2.7q0 0 0-0.1 0 0 0 0 0-0.1 0-0.1h-3q0 0 0 0.1 0 0 0 0 0 0.1 0 0.1 0 0.1 0 0.1c0 0.4 0.1 0.8 0.4 1.1 0.3 0.2 0.7 0.4 1.1 0.4 0.4 0 0.8-0.2 1.1-0.4 0.3-0.3 0.4-0.7 0.4-1.1q0 0 0-0.1zm7.3-2.5q0.1-0.1 0.1-0.2 0-0.1-0.1-0.1 0-0.1 0-0.2l-1.4-2.2q-0.2-0.4-0.4-0.8-0.2-0.5-0.3-0.9-0.2-0.5-0.2-0.9-0.1-0.5-0.1-1v-3.1c0-1.7-0.7-3.3-1.9-4.5-1.2-1.1-2.8-1.8-4.5-1.8-1.7 0-3.3 0.7-4.5 1.8-1.2 1.2-1.9 2.8-1.9 4.5v3.1q0 0.5-0.1 1 0 0.4-0.2 0.9-0.1 0.4-0.3 0.9-0.2 0.4-0.4 0.8l-1.4 2.2q-0.1 0.2-0.1 0.3 0 0.2 0.1 0.4 0.1 0.1 0.3 0.2 0.1 0.1 0.3 0.1h16.4q0.1 0 0.2 0 0 0 0.1-0.1 0.1 0 0.2-0.1 0-0.1 0.1-0.1 0-0.1 0-0.2z"/></svg>