<svg version="1.2" xmlns="http://www.w3.org/2000/svg" viewBox="0 0 24 24" width="24" height="24"><style>.a{fill:none;stroke:#292d32;stroke-width:1.5}</style><path fill-rule="evenodd" class="a" d="m14 3.9l-0.4-1.1c-0.3-0.6-0.9-1-1.6-1-0.7 0-1.3 0.4-1.6 1l-0.4 1.1c-0.2 0.5-0.5 0.8-0.9 1-0.5 0.2-1 0.2-1.4 0l-1.1-0.5c-0.6-0.3-1.4-0.1-1.8 0.4-0.5 0.4-0.7 1.2-0.4 1.8l0.5 1.1c0.2 0.4 0.2 0.9 0 1.4-0.2 0.4-0.5 0.7-1 0.9l-1.1 0.4c-0.6 0.3-1 0.9-1 1.6 0 0.7 0.4 1.3 1 1.6l1.1 0.4c0.5 0.2 0.8 0.5 1 0.9 0.2 0.5 0.2 1 0 1.4l-0.5 1.1c-0.3 0.6-0.1 1.4 0.4 1.8 0.4 0.5 1.2 0.7 1.8 0.4l1.1-0.5c0.4-0.2 0.9-0.2 1.4 0 0.4 0.2 0.7 0.5 0.9 1l0.4 1.1c0.3 0.6 0.9 1 1.6 1 0.7 0 1.3-0.4 1.6-1l0.4-1.1c0.2-0.5 0.5-0.8 0.9-1 0.5-0.2 1-0.2 1.4 0l1.1 0.5c0.6 0.3 1.4 0.1 1.8-0.4 0.5-0.4 0.7-1.2 0.4-1.8l-0.5-1.1c-0.2-0.4-0.2-0.9 0-1.4 0.2-0.4 0.5-0.7 1-0.9l1.1-0.4c0.6-0.3 1-0.9 1-1.6 0-0.7-0.4-1.3-1-1.6l-1.1-0.4c-0.5-0.2-0.8-0.5-1-0.9-0.2-0.5-0.2-1 0-1.4l0.5-1.1c0.3-0.6 0.1-1.4-0.4-1.8-0.4-0.5-1.2-0.7-1.8-0.4l-1.1 0.5c-0.4 0.2-0.9 0.2-1.4 0-0.4-0.2-0.7-0.5-0.9-1z"/><path fill-rule="evenodd" class="a" d="m12 16.6c-2.5 0-4.6-2.1-4.6-4.6 0-2.5 2.1-4.6 4.6-4.6 2.5 0 4.6 2.1 4.6 4.6 0 2.5-2.1 4.6-4.6 4.6z"/></svg>