<svg version="1.2" xmlns="http://www.w3.org/2000/svg" viewBox="0 0 24 24" width="24" height="24"><style>.a{fill:#292d32}</style><path fill-rule="evenodd" class="a" d="m18 3c1.9 0 3.3 0 4.4 0.6q0.2 0.1 0.4 0.3 0.2 0.1 0.4 0.3 0.1 0.2 0.3 0.4 0.1 0.2 0.2 0.5c0.2 0.6 0.3 1.4 0.3 2.4v12c0 1-0.1 1.8-0.3 2.4q-0.1 0.3-0.2 0.5-0.2 0.2-0.3 0.4-0.2 0.2-0.4 0.3-0.2 0.2-0.4 0.3c-1.1 0.6-2.5 0.6-4.4 0.6h-7.5c-1.9 0-3.3 0-4.4-0.6-0.6-0.3-1-0.8-1.3-1.5-0.2-0.6-0.3-1.4-0.3-2.4v-12c0-1 0.1-1.8 0.3-2.4q0.1-0.3 0.2-0.5 0.2-0.2 0.3-0.4 0.2-0.2 0.4-0.3 0.2-0.2 0.4-0.3c1.1-0.6 2.5-0.6 4.4-0.6 0 0 7.5 0 7.5 0zm-11.2 1.9c-0.3 0.1-0.4 0.3-0.6 0.7q-0.2 0.6-0.2 1.9v12q0 1.3 0.2 1.9c0.2 0.4 0.3 0.6 0.6 0.7 0.6 0.3 1.8 0.4 3.7 0.4h7.5c1.9 0 3.1-0.1 3.7-0.4 0.3-0.1 0.4-0.3 0.6-0.7q0.2-0.6 0.2-1.9v-12q0-1.3-0.2-1.9c-0.2-0.4-0.3-0.6-0.6-0.7-0.6-0.3-1.8-0.4-3.7-0.4h-7.5c-1.9 0-3.1 0.1-3.7 0.4z"/><path class="a" d="m14.7 7.5q-0.6 0-1.2 0-0.6 0.1-1.2 0.3-0.6 0.2-1.1 0.4-0.6 0.3-1.1 0.7-0.9 0.7-1.6 1.8-0.6 1-0.9 2.2-0.2 1.2 0 2.4 0.2 1.3 0.8 2.3 0.6 1.1 1.6 1.9 0.9 0.7 2.1 1.1 1.1 0.4 2.4 0.4 1.2 0 2.3-0.5 1.2-0.5 2.1-1.3 0.9-0.9 1.4-2 0.5-1.1 0.7-2.3 0.1-1.2-0.2-2.4l-0.2-0.7-1.5 0.4 0.2 0.7q0.3 0.9 0.2 1.9-0.1 0.9-0.5 1.8-0.5 0.8-1.2 1.5-0.7 0.6-1.5 1-0.9 0.4-1.9 0.4-0.9 0-1.8-0.3-0.9-0.3-1.7-0.9-0.7-0.6-1.2-1.4c-0.6-1.1-0.8-2.3-0.6-3.5 0.2-1.2 0.8-2.3 1.7-3.1 0.9-0.8 2-1.2 3.2-1.3 1.2 0 2.4 0.3 3.4 1.1l-1 0.9 1.1 1.1 1-1 0.5-0.6 0.6-0.5-0.6-0.5q-0.4-0.5-0.9-0.8-0.5-0.3-1.1-0.6-0.5-0.2-1.1-0.4-0.6-0.1-1.2-0.2z"/><path fill-rule="evenodd" class="a" d="m15.1 12.2q0.4 0.1 0.7 0.5 0.4 0.3 0.5 0.7 0.2 0.4 0.2 0.9 0 0.4-0.2 0.8-0.1 0.4-0.5 0.7-0.3 0.4-0.7 0.5-0.4 0.2-0.8 0.2-0.5 0-0.9-0.2-0.4-0.1-0.7-0.5-0.4-0.3-0.5-0.7-0.2-0.4-0.2-0.8 0-0.5 0.2-0.9 0.1-0.4 0.5-0.7 0.3-0.4 0.7-0.5 0.4-0.2 0.9-0.2 0.4 0 0.8 0.2zm-1.1 1.4q-0.2 0-0.3 0.1-0.1 0.1-0.1 0.3-0.1 0.1-0.1 0.3 0 0.1 0.1 0.2 0 0.2 0.1 0.3 0.1 0.1 0.3 0.1 0.1 0.1 0.3 0.1 0.1 0 0.2-0.1 0.2 0 0.3-0.1 0.1-0.1 0.1-0.3 0.1-0.1 0.1-0.2 0-0.2-0.1-0.3 0-0.2-0.1-0.3-0.1-0.1-0.3-0.1-0.1-0.1-0.2-0.1-0.2 0-0.3 0.1z"/><path class="a" d="m7.5 0c-1.9 0-3.3 0-4.4 0.6q-0.2 0.1-0.4 0.3-0.2 0.1-0.4 0.3-0.1 0.2-0.3 0.4-0.1 0.2-0.2 0.5c-0.2 0.6-0.3 1.4-0.3 2.4v13.5h1.5v-13.5q0-1.3 0.2-1.9c0.2-0.4 0.3-0.6 0.6-0.7 0.6-0.3 1.8-0.4 3.7-0.4h10.5v-1.5c0 0-10.5 0-10.5 0z"/></svg>