<svg version="1.2" xmlns="http://www.w3.org/2000/svg" viewBox="0 0 24 24" width="24" height="24"><style>.a{fill:#292d32}</style><path fill-rule="evenodd" class="a" d="m16.5 4.4l3.1 3.2c1.1 1 1.9 1.8 2.4 2.5 0.5 0.7 0.9 1.5 0.7 2.4-0.2 0.8-0.8 1.4-1.6 1.8-0.8 0.5-1.9 0.9-3.2 1.4l-2 0.7c-0.8 0.3-1 0.4-1.2 0.5q-0.1 0.2-0.2 0.3c-0.1 0.2-0.2 0.4-0.4 1.2-0.2 0.9-0.4 1.6-0.6 2.1-0.2 0.5-0.5 1-1 1.3q-0.6 0.3-1.2 0.3c-0.6 0-1.1-0.3-1.5-0.6-0.4-0.4-1-0.9-1.6-1.5l-1.5-1.6-4.2 4.1c-0.3 0.3-0.7 0.3-1 0-0.3-0.3-0.3-0.7 0-1l4.1-4.2-1.5-1.5q-1-0.9-1.5-1.5c-0.3-0.5-0.6-1-0.6-1.5q0-0.7 0.3-1.2c0.3-0.5 0.8-0.8 1.3-1q0.8-0.3 2-0.6c0.9-0.3 1.1-0.3 1.3-0.5q0.1-0.1 0.2-0.2c0.1-0.2 0.2-0.4 0.5-1.2l0.7-1.9c0.5-1.4 0.9-2.5 1.4-3.3 0.4-0.8 1-1.4 1.8-1.6 0.9-0.2 1.7 0.2 2.4 0.7 0.7 0.5 1.6 1.4 2.6 2.4zm-3.5-1.2c-0.6-0.4-0.9-0.5-1.1-0.4-0.3 0-0.6 0.2-0.9 0.9-0.4 0.6-0.7 1.6-1.3 3l-0.7 1.9q0 0.1 0 0.1c-0.2 0.7-0.4 1.2-0.8 1.6q-0.2 0.2-0.5 0.4c-0.4 0.3-0.9 0.5-1.5 0.7q-0.1 0-0.2 0c-0.8 0.2-1.4 0.4-1.9 0.6-0.4 0.1-0.5 0.3-0.5 0.3q-0.1 0.2-0.1 0.5c0 0 0 0.2 0.3 0.5 0.3 0.4 0.7 0.8 1.4 1.5l4.1 4.1c0.6 0.6 1.1 1.1 1.4 1.4 0.4 0.3 0.5 0.3 0.6 0.3q0.2 0 0.4-0.1c0.1-0.1 0.2-0.2 0.4-0.6 0.1-0.4 0.3-1 0.6-1.9q0-0.1 0-0.1c0.2-0.7 0.3-1.2 0.6-1.6q0.2-0.3 0.5-0.5c0.4-0.3 0.8-0.5 1.5-0.7q0-0.1 0.1-0.1l1.9-0.7c1.4-0.5 2.4-0.9 3-1.3 0.7-0.3 0.9-0.6 0.9-0.9 0.1-0.2 0-0.5-0.4-1.1-0.5-0.6-1.2-1.4-2.3-2.4l-3-3.1c-1.1-1.1-1.9-1.8-2.5-2.3z"/></svg>