<svg version="1.2" xmlns="http://www.w3.org/2000/svg" viewBox="0 0 24 24" width="24" height="24"><style>.a{fill:#292d32}</style><path fill-rule="evenodd" class="a" d="m23.7 8.4v7.2q0 1.6-0.6 3.1-0.6 1.5-1.8 2.6-1.1 1.2-2.6 1.8-1.5 0.6-3.1 0.6h-7.2q-1.6 0-3.1-0.6-1.5-0.6-2.6-1.8-1.2-1.1-1.8-2.6-0.6-1.5-0.6-3.1v-7.2q0-1.6 0.6-3.1 0.6-1.5 1.8-2.6 1.1-1.2 2.6-1.8 1.5-0.6 3.1-0.6h7.2q1.6 0 3.1 0.6 1.5 0.6 2.6 1.8 1.2 1.1 1.8 2.6 0.6 1.5 0.6 3.1zm-1.8 0q0-1.3-0.5-2.4-0.5-1.2-1.3-2.1-0.9-0.8-2.1-1.3-1.1-0.5-2.4-0.5h-7.2q-1.3 0-2.4 0.5-1.2 0.5-2.1 1.3-0.8 0.9-1.3 2.1-0.5 1.1-0.5 2.4v7.2q0 1.3 0.5 2.4 0.5 1.2 1.3 2.1 0.9 0.8 2.1 1.3 1.1 0.5 2.4 0.5h7.2q1.3 0 2.4-0.5 1.2-0.5 2.1-1.3 0.8-0.9 1.3-2.1 0.5-1.1 0.5-2.4zm-5.7 0.6l-2.9 3 2.9 3q0.3 0.2 0.3 0.6 0 0.4-0.2 0.7-0.3 0.2-0.7 0.2-0.4 0-0.6-0.3l-3-2.9-3 2.9q-0.2 0.3-0.6 0.3-0.4 0-0.6-0.3-0.3-0.2-0.3-0.6 0-0.4 0.3-0.6l2.9-3-2.9-3q-0.3-0.2-0.3-0.6 0-0.4 0.3-0.6 0.2-0.3 0.6-0.3 0.4 0 0.6 0.3l3 2.9 3-2.9q0.2-0.3 0.6-0.3 0.4 0 0.6 0.3 0.3 0.2 0.3 0.6 0 0.4-0.3 0.6z"/></svg>