<svg version="1.2" xmlns="http://www.w3.org/2000/svg" viewBox="0 0 24 24" width="24" height="24"><style>.a{fill:none;stroke:#292d32;stroke-linecap:round;stroke-width:1.5}</style><path class="a" d="m21.6 5.2h-19.2"/><path class="a" d="m19.7 8l-0.5 7.8c-0.2 3-0.3 4.5-1.3 5.5-1 0.9-2.5 0.9-5.5 0.9h-0.8c-3 0-4.5 0-5.5-0.9-1-1-1.1-2.5-1.3-5.5l-0.5-7.8"/><path class="a" d="m5.8 5.2q0.1 0 0.1 0c0.9 0 1.8-0.6 2.1-1.5q0 0 0-0.1l0.1-0.3c0.1-0.3 0.2-0.4 0.2-0.6 0.3-0.4 0.7-0.8 1.3-0.8 0.1-0.1 0.2-0.1 0.5-0.1h3.8c0.3 0 0.4 0 0.5 0.1 0.6 0 1 0.4 1.3 0.8 0 0.2 0.1 0.3 0.2 0.6l0.1 0.3q0 0.1 0 0.1c0.3 0.9 1.2 1.5 2.1 1.5q0 0 0.1 0"/></svg>