<svg version="1.2" xmlns="http://www.w3.org/2000/svg" viewBox="0 0 35 35" width="35" height="35"><style>.a{fill:#1683e9}.b{fill:#282b34;stroke:#fff;stroke-miterlimit:100;stroke-width:2}.c{fill:#fff}.d{fill:#282b34}</style><path fill-rule="evenodd" class="a" d="m28.2 8.8c0-3.7-4-5.9-7.2-4.2l-16.3 8.9c-3.3 1.8-3.3 6.5 0 8.4l16.3 8.8c3.2 1.8 7.2-0.4 7.2-4.2z"/><path fill-rule="evenodd" class="b" d="m7 8.8c0-3.7 4-5.9 7.3-4.2l16.2 8.9c3.3 1.8 3.3 6.5 0 8.4l-16.2 8.8c-3.3 1.8-7.3-0.4-7.3-4.2z"/><path fill-rule="evenodd" class="c" d="m17.6 18.3c-2.9 1.6-5.6-0.8-6.6-0.2-0.8 0.4 1.8 8.8 3 12.8q0.1-0.1 0.3-0.2l16.1-8.8c-2.7-2.9-8.8-9.8-9.6-9.3-1 0.5-0.1 4.1-3.2 5.7z"/><path class="d" d="m21.7 19c0.8 0 1.5 0.7 1.5 1.5 0 0.8-0.7 1.5-1.5 1.5-0.8 0-1.5-0.7-1.5-1.5 0-0.8 0.7-1.5 1.5-1.5z"/><path class="d" d="m17.7 21c0.8 0 1.5 0.7 1.5 1.5 0 0.8-0.7 1.5-1.5 1.5-0.8 0-1.5-0.7-1.5-1.5 0-0.8 0.7-1.5 1.5-1.5z"/></svg>