<svg width="24" height="24" viewBox="0 0 24 24" fill="none" xmlns="http://www.w3.org/2000/svg">
    <path d="M1 22H23" stroke="#FFF" stroke-width="1.5" stroke-miterlimit="10" stroke-linecap="round" stroke-linejoin="round"/>
    <path d="M19.78 22.01V17.55" stroke="#FFF" stroke-width="1.5" stroke-miterlimit="10" stroke-linecap="round" stroke-linejoin="round"/>
    <path d="M19.8 10.89C18.58 10.89 17.6 11.87 17.6 13.09V15.36C17.6 16.58 18.58 17.56 19.8 17.56C21.02 17.56 22 16.58 22 15.36V13.09C22 11.87 21.02 10.89 19.8 10.89Z" stroke="#FFF" stroke-width="1.5" stroke-miterlimit="10" stroke-linecap="round" stroke-linejoin="round"/>
    <path d="M2.09998 22V6.03003C2.09998 4.02003 3.10003 3.01001 5.09003 3.01001H11.32C13.31 3.01001 14.3 4.02003 14.3 6.03003V22" stroke="#FFF" stroke-width="1.5" stroke-miterlimit="10" stroke-linecap="round" stroke-linejoin="round"/>
    <path d="M5.79999 8.25H10.75" stroke="#FFF" stroke-width="1.5" stroke-miterlimit="10" stroke-linecap="round" stroke-linejoin="round"/>
    <path d="M5.79999 12H10.75" stroke="#FFF" stroke-width="1.5" stroke-miterlimit="10" stroke-linecap="round" stroke-linejoin="round"/>
    <path d="M8.25 22V18.25" stroke="#FFF" stroke-width="1.5" stroke-miterlimit="10" stroke-linecap="round" stroke-linejoin="round"/>
</svg>